<?xml version="1.0"?>
<svg version="1.1" xmlns="http://www.w3.org/2000/svg" width="300px" height="45px" style=""><path fill="#072ac8" d="M58.624,19.7q-3.164,0-5.432,2.268q-2.296,2.296-2.296,5.46l0,4.228q0,3.108,2.296,5.404t5.432,2.296q3.164,0,5.46-2.296q2.268-2.268,2.268-5.404l0-4.228q0-3.192-2.268-5.46t-5.46-2.268z M64.616,27.428l0,4.228q0,2.548-1.792,4.284q-1.764,1.68-4.2,1.68t-4.172-1.68q-1.792-1.736-1.792-4.284l0-4.228q0-2.352,1.792-4.2q1.792-1.792,4.172-1.792q2.352,0,4.2,1.792q1.792,1.848,1.792,4.2z M82.58752,21.408l-12.628,17.92l15.792,0l0-1.4l-12.628,0l12.628-18.256l-15.456,0l0,1.736l12.292,0z M98.76704,21.38l5.404,0l0-1.764l-5.404,0q-4.032,0-6.832,2.856q-2.828,2.884-2.828,7.196q0,4.004,2.828,6.832t6.832,2.828l3.584,0l1.82,0l0-1.792l0-8.96l-1.82,0l-4.284,0l0,1.792l4.284,0l0,7.168l-3.584,0q-3.192,0-5.516-2.324t-2.324-5.544q0-3.5,2.324-5.908q2.296-2.38,5.516-2.38z M109.96256,33.924q0-1.344,0.952-2.436q0.952-1.148,2.296-1.148l0.364,0l5.236,0l0-1.736l-5.236,0l-0.364,0q-1.428-0.28-2.338-1.232t-0.91-2.268q0-1.652,0.966-2.618t2.646-0.966l9.52,0l0-1.764l-9.52,0q-2.156,0-3.752,1.596q-1.596,1.54-1.596,3.752q0,1.4,0.532,2.548t1.568,1.652q-1.036,0.756-1.568,1.988t-0.532,2.632q0,2.184,1.596,3.724q1.624,1.624,3.752,1.624l9.52,0l0-1.848l-9.52,0q-1.68,0-2.646-0.952t-0.966-2.548z M134.20608,19.7q-3.164,0-5.432,2.268q-2.296,2.296-2.296,5.46l0,4.228q0,3.108,2.296,5.404t5.432,2.296q3.164,0,5.46-2.296q2.268-2.268,2.268-5.404l0-4.228q0-3.192-2.268-5.46t-5.46-2.268z M140.19808,27.428l0,4.228q0,2.548-1.792,4.284q-1.764,1.68-4.2,1.68t-4.172-1.68q-1.792-1.736-1.792-4.284l0-4.228q0-2.352,1.792-4.2q1.792-1.792,4.172-1.792q2.352,0,4.2,1.792q1.792,1.848,1.792,4.2z M146.0456,39.3l1.736,0l0-11.872q0-2.352,1.792-4.2q1.792-1.792,4.144-1.792t4.2,1.792q1.792,1.848,1.792,4.2l0,11.872l1.736,0l0-11.872q0-3.192-2.268-5.46t-5.46-2.268q-3.136,0-5.404,2.268t-2.268,5.46l0,11.872z M165.80912,39.356l13.692,0l0-1.428l-11.956,0l0-18.228l-1.736,0l0,19.656z M182.85664,39.328l1.764,0l0-19.684l-1.764,0l0,19.684z M188.95616,39.3l1.736,0l0-11.872q0-2.352,1.792-4.2q1.792-1.792,4.144-1.792t4.2,1.792q1.792,1.848,1.792,4.2l0,11.872l1.736,0l0-11.872q0-3.192-2.268-5.46t-5.46-2.268q-3.136,0-5.404,2.268t-2.268,5.46l0,11.872z M210.25968,33.924q0-1.344,0.952-2.436q0.952-1.148,2.296-1.148l0.364,0l5.236,0l0-1.736l-5.236,0l-0.364,0q-1.428-0.28-2.338-1.232t-0.91-2.268q0-1.652,0.966-2.618t2.646-0.966l9.52,0l0-1.764l-9.52,0q-2.156,0-3.752,1.596q-1.596,1.54-1.596,3.752q0,1.4,0.532,2.548t1.568,1.652q-1.036,0.756-1.568,1.988t-0.532,2.632q0,2.184,1.596,3.724q1.624,1.624,3.752,1.624l9.52,0l0-1.848l-9.52,0q-1.68,0-2.646-0.952t-0.966-2.548z"/><path fill="#" d=""/></svg>
